<svg width="3" height="8" viewBox="0 0 3 8" fill="none" xmlns="http://www.w3.org/2000/svg">
<path fill-rule="evenodd" clip-rule="evenodd" d="M3 5.7173V7.09018C2.13492 7.05765 1.47672 6.80298 1.02539 6.32617C0.541016 5.81445 0.298828 5.07031 0.298828 4.09375C0.298828 3.50391 0.382812 2.99609 0.550781 2.57031C0.71875 2.14062 0.947266 1.80859 1.23633 1.57422C1.74613 1.1678 2.33402 0.946845 3 0.911346V2.13504C2.73754 2.15536 2.53246 2.24967 2.38477 2.41797C2.2168 2.60938 2.10547 2.93359 2.05078 3.39062L3 3.35254V4.38672H2.03906C2.07031 4.89062 2.19922 5.24609 2.42578 5.45312C2.56719 5.58015 2.75859 5.66821 3 5.7173Z" fill="white"/>
</svg>
